<?xml version="1.0" encoding="utf-8"?>
<!-- Generator: Adobe Illustrator 14.0.0, SVG Export Plug-In . SVG Version: 6.00 Build 43363)  -->
<!DOCTYPE svg PUBLIC "-//W3C//DTD SVG 1.1//EN" "http://www.w3.org/Graphics/SVG/1.1/DTD/svg11.dtd">
<svg version="1.1" id="Layer_1" xmlns="http://www.w3.org/2000/svg" xmlns:xlink="http://www.w3.org/1999/xlink" x="0px" y="0px"
	 width="80px" height="77px" viewBox="0 0 80 77" enable-background="new 0 0 80 77" xml:space="preserve">
<g>
	<path fill="#F47A0B" stroke="#753B0B" stroke-width="2.3787" d="M21.317,44.799c0,0-6.083,2.116-12.114,5.133
		c-4.231,1.797-5.025,4.865-1.006,7.143c2.722,1.539,24.978,11.83,26.239,12.379c3.28,1.429,11.852,1.163,14.337-0.055
		c2.028-0.994,19.68-10.474,24.121-12.907c4.437-2.429,2.66-5.462-0.316-6.771c-1.628-0.716-13.014-5.396-13.014-5.396
		L21.317,44.799z"/>
	<path fill="#F47A0B" stroke="#753B0B" stroke-width="2.3787" d="M33.908,6.5c-0.687,2.151-8.146,24.439-13.226,41.896
		C17.668,65.221,65.7,61.781,60.146,47.654C55.068,30.675,48.716,10.936,47.027,5.918C46.057,3.036,35.249,2.3,33.908,6.5z"/>
	<path fill="none" stroke="#753B0B" stroke-width="2.3787" d="M33.908,6.5c0.37,2.486,12.859,2.552,13.277,0.105"/>
</g>
</svg>
