<?xml version="1.0" encoding="iso-8859-1"?>
<!-- Generator: Adobe Illustrator 19.0.0, SVG Export Plug-In . SVG Version: 6.00 Build 0)  -->
<svg version="1.1" id="Capa_1" xmlns="http://www.w3.org/2000/svg" xmlns:xlink="http://www.w3.org/1999/xlink" x="0px" y="0px"
	 viewBox="0 0 496 496" style="enable-background:new 0 0 496 496;" xml:space="preserve">
<rect x="152" y="248" style="fill:#493325;" width="192" height="32"/>
<path d="M344,288H152c-4.8,0-8-3.2-8-8v-32c0-4.8,3.2-8,8-8h192c4.8,0,8,3.2,8,8v32C352,284.8,348.8,288,344,288z M160,272h176v-16
	H160V272z"/>
<rect x="144" y="344" style="fill:#493325;" width="208" height="32"/>
<path d="M352,384H144c-4.8,0-8-3.2-8-8v-32c0-4.8,3.2-8,8-8h208c4.8,0,8,3.2,8,8v32C360,380.8,356.8,384,352,384z M152,368h192v-16
	H152V368z"/>
<rect x="8" y="456" style="fill:#493325;" width="480" height="32"/>
<path d="M488,496H8c-4.8,0-8-3.2-8-8v-32c0-4.8,3.2-8,8-8h480c4.8,0,8,3.2,8,8v32C496,492.8,492.8,496,488,496z M16,480h464v-16H16
	V480z"/>
<rect x="120" y="8" style="fill:#D75352;" width="256" height="64"/>
<path d="M376,80H120c-4.8,0-8-3.2-8-8V8c0-4.8,3.2-8,8-8h256c4.8,0,8,3.2,8,8v64C384,76.8,380.8,80,376,80z M128,64h240V16H128V64z"
	/>
<rect x="120" y="32" width="40" height="16"/>
<rect x="336" y="32" width="40" height="16"/>
<polygon style="fill:#896045;" points="136,456 104,456 136,120 168,120 "/>
<path d="M136,464h-32c-4.8,0-8-3.2-8-8v-0.8l32-336c0.8-4,4-7.2,8-7.2h32c4.8,0,8,3.2,8,8v0.8l-32,336C143.2,460.8,140,464,136,464z
	 M112.8,448h16l30.4-320h-16L112.8,448z"/>
<polygon style="fill:#896045;" points="360,120 328,120 360,456 392,456 "/>
<path d="M392,464h-32c-4,0-7.2-3.2-8-7.2l-32-336c-0.8-4,3.2-8,7.2-8.8h0.8h32c4,0,7.2,3.2,8,7.2l32,336c0.8,4-2.4,8-7.2,8.8
	C392.8,464,392,464,392,464z M367.2,448h16l-30.4-320h-16L367.2,448z"/>
<rect x="136" y="72" style="fill:#F1EBE9;" width="224" height="48"/>
<path d="M360,128H136c-4.8,0-8-3.2-8-8V72c0-4.8,3.2-8,8-8h224c4.8,0,8,3.2,8,8v48C368,124.8,364.8,128,360,128z M144,112h208V80
	H144V112z"/>
<g>
</g>
<g>
</g>
<g>
</g>
<g>
</g>
<g>
</g>
<g>
</g>
<g>
</g>
<g>
</g>
<g>
</g>
<g>
</g>
<g>
</g>
<g>
</g>
<g>
</g>
<g>
</g>
<g>
</g>
</svg>
